<?xml version="1.0" encoding="UTF-8"?>
<svg id="Layer_1" data-name="Layer 1" xmlns="http://www.w3.org/2000/svg" viewBox="0 0 383 780">
  <defs>
    <style>
      .cls-1 {
        fill: #f8f8f8;
      }

      .cls-2 {
        fill: #1d1d1b;
      }
    </style>
  </defs>
  <polygon class="cls-1" points="383 55 364.5 23.7 333.1 0 383 0 383 55"/>
  <polygon class="cls-1" points="57 780 26 768 8 740 0 714 0 780 57 780"/>
  <polygon class="cls-1" points="326 780 357 768 375 740 383 714 383 780 326 780"/>
  <polygon class="cls-1" points="1.5 55 20 23.7 51.4 0 1.5 0 1.5 55"/>
  <path class="cls-2" d="m383,191h-1.5V49.9C381.5,22.4,359.1,0,331.6,0H51.4C23.9,0,1.5,22.4,1.5,49.9v51.6H0v30.5h1.5v24.3H0v60.6h1.5v16.9H0v60.6h1.5v435.7c0,27.5,22.4,49.9,49.9,49.9h280.2c27.5,0,49.9-22.4,49.9-49.9v-440.1h1.5v-99ZM214.5,27.5c0,2.1-1.7,3.8-3.8,3.8h-38.5c-2.1,0-3.8-1.7-3.8-3.8s1.7-3.8,3.8-3.8h38.5c2.1.1,3.8,1.7,3.8,3.8Zm155,702.6c0,20.9-17,37.9-37.9,37.9H51.4c-20.9,0-37.9-17-37.9-37.9V49.9c0-20.9,17-37.9,37.9-37.9h43.4v13.3c0,10.9,8.8,19.7,19.7,19.7h154c10.9,0,19.7-8.8,19.7-19.7v-13.3h43.4c20.9,0,37.9,17,37.9,37.9v680.2Z"/>
</svg>