<?xml version="1.0" encoding="utf-8"?>
<!-- Generator: Adobe Illustrator 27.3.1, SVG Export Plug-In . SVG Version: 6.00 Build 0)  -->
<svg version="1.1" id="Layer_1" xmlns="http://www.w3.org/2000/svg" xmlns:xlink="http://www.w3.org/1999/xlink" x="0px" y="0px"
	 viewBox="0 0 383 780" style="enable-background:new 0 0 383 780;" xml:space="preserve">
<style type="text/css">
	.st0{display:none;fill:#F8F8F8;}
	.st1{fill:#F8F8F8;}
	.st2{fill:#1D1D1B;}
</style>
<rect x="1.5" class="st0" width="55" height="55"/>
<polygon class="st1" points="383,55 364.5,23.7 333.1,0 383,0 "/>
<polygon class="st1" points="57,780 26,768 8,740 0,714 0,780 "/>
<polygon class="st1" points="326,780 357,768 375,740 383,714 383,780 "/>
<polygon class="st1" points="1.5,55 20,23.7 51.4,0 1.5,0 "/>
<path class="st2" d="M381.5,191V49.9c0-27.5-22.4-49.9-49.9-49.9H51.4C23.9,0,1.5,22.4,1.5,49.9v51.6H0V132h1.5v24.3H0v60.6h1.5
	v16.9H0v60.6h1.5v435.7c0,27.5,22.4,49.9,49.9,49.9h280.2c27.5,0,49.9-22.4,49.9-49.9V290h1.5v-99H381.5z M369.5,730.1
	c0,20.9-17,37.9-37.9,37.9H51.4c-20.9,0-37.9-17-37.9-37.9V49.9C13.5,29,30.5,12,51.4,12H86c0-0.3,34.3-0.3,43.7-0.1
	c7.7-0.2,39.4-0.1,43.8,0.1c11.8-0.1,32.6-0.1,37,0.1c10.8-0.3,23.3-0.7,27.3-0.3c4.9-0.1,11.7-0.2,18.2-0.2
	c7.5-0.6,44.7,0.8,44.7,0.3c0,0.1,0,0.1,0,0.2h30.9c20.9,0,37.9,17,37.9,37.9V730.1z"/>
</svg>
